<svg width="24" height="24" viewBox="0 0 24 24" fill="none" xmlns="http://www.w3.org/2000/svg">
<mask id="mask0_4_545" style="mask-type:alpha" maskUnits="userSpaceOnUse" x="0" y="0" width="24" height="24">
<rect width="24" height="24" fill="#D9D9D9"/>
</mask>
<g mask="url(#mask0_4_545)">
<path d="M12 19.25L11.45 18.75C9.83333 17.2667 8.496 16 7.438 14.95C6.37933 13.9 5.546 12.9793 4.938 12.188C4.32933 11.396 3.90433 10.6833 3.663 10.05C3.421 9.41668 3.3 8.78335 3.3 8.15001C3.3 6.96668 3.70433 5.97068 4.513 5.16201C5.321 4.35401 6.31667 3.95001 7.5 3.95001C8.38333 3.95001 9.20833 4.18735 9.975 4.66201C10.7417 5.13735 11.4167 5.83335 12 6.75001C12.5833 5.83335 13.2583 5.13735 14.025 4.66201C14.7917 4.18735 15.6167 3.95001 16.5 3.95001C17.6833 3.95001 18.6793 4.35401 19.488 5.16201C20.296 5.97068 20.7 6.96668 20.7 8.15001C20.7 8.78335 20.5793 9.41668 20.338 10.05C20.096 10.6833 19.6707 11.396 19.062 12.188C18.454 12.9793 17.625 13.9 16.575 14.95C15.525 16 14.1833 17.2667 12.55 18.75L12 19.25ZM12 18.3C13.6 16.85 14.9167 15.6083 15.95 14.575C16.9833 13.5417 17.8 12.6457 18.4 11.887C19 11.129 19.4167 10.4583 19.65 9.87501C19.8833 9.29168 20 8.71668 20 8.15001C20 7.15001 19.6667 6.31668 19 5.65001C18.3333 4.98335 17.5 4.65001 16.5 4.65001C15.7 4.65001 14.9627 4.87901 14.288 5.33701C13.6127 5.79568 12.9667 6.51668 12.35 7.50001H11.65C11.0167 6.50001 10.3667 5.77501 9.7 5.32501C9.03333 4.87501 8.3 4.65001 7.5 4.65001C6.51667 4.65001 5.68767 4.98335 5.013 5.65001C4.33767 6.31668 4 7.15001 4 8.15001C4 8.71668 4.11667 9.29168 4.35 9.87501C4.58333 10.4583 5 11.129 5.6 11.887C6.2 12.6457 7.01667 13.5373 8.05 14.562C9.08333 15.5873 10.4 16.8333 12 18.3Z" fill="#1C1B1F"/>
</g>
</svg>
