<svg width="24" height="24" viewBox="0 0 24 24" fill="none" xmlns="http://www.w3.org/2000/svg">
<rect width="24" height="24" rx="4" fill="#B7B7B7"/>
<mask id="mask0_27_879" style="mask-type:alpha" maskUnits="userSpaceOnUse" x="0" y="0" width="24" height="24">
<rect width="24" height="24" fill="#D9D9D9"/>
</mask>
<g mask="url(#mask0_27_879)">
<path d="M19.475 20.15L13.225 13.9C12.725 14.3167 12.15 14.6417 11.5 14.875C10.85 15.1083 10.2 15.225 9.55 15.225C7.93334 15.225 6.571 14.6707 5.463 13.562C4.35434 12.454 3.8 11.1 3.8 9.49999C3.8 7.89999 4.35434 6.54566 5.463 5.43699C6.571 4.32899 7.925 3.77499 9.525 3.77499C11.125 3.77499 12.4833 4.32899 13.6 5.43699C14.7167 6.54566 15.275 7.89999 15.275 9.49999C15.275 10.2 15.15 10.875 14.9 11.525C14.65 12.175 14.325 12.725 13.925 13.175L20.2 19.45L19.475 20.15ZM9.55 14.225C10.8667 14.225 11.9833 13.771 12.9 12.863C13.8167 11.9543 14.275 10.8333 14.275 9.49999C14.275 8.16666 13.8167 7.04566 12.9 6.13699C11.9833 5.22899 10.8667 4.77499 9.55 4.77499C8.21667 4.77499 7.09167 5.22899 6.175 6.13699C5.25834 7.04566 4.8 8.16666 4.8 9.49999C4.8 10.8333 5.25834 11.9543 6.175 12.863C7.09167 13.771 8.21667 14.225 9.55 14.225Z" fill="#1C1B1F"/>
</g>
</svg>
