<svg width="24" height="24" viewBox="0 0 24 24" fill="none" xmlns="http://www.w3.org/2000/svg">
<rect width="24" height="24" rx="4" fill="#B7B7B7"/>
<mask id="mask0_27_1209" style="mask-type:alpha" maskUnits="userSpaceOnUse" x="0" y="0" width="24" height="24">
<rect width="24" height="24" fill="#D9D9D9"/>
</mask>
<g mask="url(#mask0_27_1209)">
<path d="M7.3 21.125C6.88333 21.125 6.52933 20.9793 6.238 20.688C5.946 20.396 5.8 20.0417 5.8 19.625C5.8 19.1917 5.946 18.8333 6.238 18.55C6.52933 18.2667 6.88333 18.125 7.3 18.125C7.73333 18.125 8.09167 18.2667 8.375 18.55C8.65833 18.8333 8.8 19.1917 8.8 19.625C8.8 20.0417 8.65833 20.396 8.375 20.688C8.09167 20.9793 7.73333 21.125 7.3 21.125ZM16.7 21.125C16.2667 21.125 15.9083 20.9793 15.625 20.688C15.3417 20.396 15.2 20.0417 15.2 19.625C15.2 19.1917 15.3417 18.8333 15.625 18.55C15.9083 18.2667 16.2667 18.125 16.7 18.125C17.1167 18.125 17.4707 18.2667 17.762 18.55C18.054 18.8333 18.2 19.1917 18.2 19.625C18.2 20.0417 18.054 20.396 17.762 20.688C17.4707 20.9793 17.1167 21.125 16.7 21.125ZM5.875 5.5L8.55 11.125H15.175C15.2917 11.125 15.396 11.0957 15.488 11.037C15.5793 10.979 15.6583 10.9 15.725 10.8L18.35 6.05C18.4167 5.9 18.4167 5.77067 18.35 5.662C18.2833 5.554 18.175 5.5 18.025 5.5H5.875ZM5.4 4.5H18.4C18.85 4.5 19.1833 4.679 19.4 5.037C19.6167 5.39567 19.625 5.75833 19.425 6.125L16.575 11.325C16.425 11.575 16.2333 11.7707 16 11.912C15.7667 12.054 15.5167 12.125 15.25 12.125H8.1L6.875 14.35C6.775 14.5 6.775 14.6667 6.875 14.85C6.975 15.0333 7.11667 15.125 7.3 15.125H18.2V16.125H7.3C6.71667 16.125 6.28333 15.879 6 15.387C5.71667 14.8957 5.70833 14.4 5.975 13.9L7.475 11.225L3.8 3.5H2V2.5H4.45L5.4 4.5Z" fill="#1C1B1F"/>
</g>
</svg>
