<svg width="24" height="24" viewBox="0 0 24 24" fill="none" xmlns="http://www.w3.org/2000/svg">
<mask id="mask0_4_547" style="mask-type:alpha" maskUnits="userSpaceOnUse" x="0" y="0" width="24" height="24">
<rect width="24" height="24" fill="#D9D9D9"/>
</mask>
<g mask="url(#mask0_4_547)">
<path d="M12 19.25L11.45 18.75C9.83333 17.2667 8.496 16 7.438 14.95C6.37933 13.9 5.546 12.9793 4.938 12.188C4.32933 11.396 3.90433 10.6833 3.663 10.05C3.421 9.41668 3.3 8.78335 3.3 8.15001C3.3 6.96668 3.70433 5.97068 4.513 5.16201C5.321 4.35401 6.31667 3.95001 7.5 3.95001C8.38333 3.95001 9.20833 4.18735 9.975 4.66201C10.7417 5.13735 11.4167 5.83335 12 6.75001C12.5833 5.83335 13.2583 5.13735 14.025 4.66201C14.7917 4.18735 15.6167 3.95001 16.5 3.95001C17.6833 3.95001 18.6793 4.35401 19.488 5.16201C20.296 5.97068 20.7 6.96668 20.7 8.15001C20.7 8.78335 20.5793 9.41668 20.338 10.05C20.096 10.6833 19.6707 11.396 19.062 12.188C18.454 12.9793 17.625 13.9 16.575 14.95C15.525 16 14.1833 17.2667 12.55 18.75L12 19.25Z" fill="#05C3FF"/>
</g>
</svg>
