<svg width="124" height="18" viewBox="0 0 124 18" fill="none" xmlns="http://www.w3.org/2000/svg">
<path fill-rule="evenodd" clip-rule="evenodd" d="M67.997 8.35835C67.997 8.35835 66.7906 7.61877 66.0446 7.33261C66.0446 7.33261 63.7355 6.27158 63.2774 5.76677C63.2774 5.76677 62.3774 4.92592 62.9044 3.94928C62.9044 3.94928 63.1249 3.31021 64.076 3.31021C64.076 3.31021 65.3141 3.37772 65.3141 4.38658V5.80973H69.7513L69.7436 3.71375C69.7436 3.71375 70.0848 0.281329 64.517 0.130192C64.517 0.130192 60.1379 -0.155209 58.8819 2.1832C58.8819 2.1832 58.389 2.70489 58.389 4.52161V5.83428C58.389 5.83428 58.3387 7.34872 59.1187 8.32459C59.1187 8.32459 59.5598 8.96443 60.6463 9.67025C60.6463 9.67025 62.8525 10.8479 64.1766 11.5223C64.1766 11.5223 65.513 12.2787 65.3373 13.4824C65.3373 13.4824 65.2282 14.7184 63.9374 14.6677C63.9374 14.6677 62.7573 14.6156 62.7573 13.4034V11.981H58.0292V14.0471C58.0292 14.0471 57.8968 17.9981 63.9723 17.9981C63.9723 17.9981 69.7776 18.1147 70.0485 13.9435V12.2611C70.0477 12.2611 70.2535 9.70477 67.997 8.35835ZM45.2801 0.621962L43.7943 9.85284H43.4469L42.0276 0.70482H34.6158L34.2443 17.4212H38.6328L38.6854 4.82619H39.0305L41.3567 17.4189H45.9734L48.271 4.83079H48.5767L48.6827 17.4212H53.0944L52.6192 0.621962H45.2801ZM19.1567 0.691779L16.237 17.402H20.9613L22.6908 4.44566H23.0793L24.8081 17.402H29.5316L26.6127 0.691779H19.1567ZM118.288 8.12819V10.5932H119.499V13.2392C119.499 14.5327 118.384 14.5565 118.384 14.5565C117.028 14.5565 117.08 13.3275 117.08 13.3275V4.17483C117.08 3.23195 118.283 3.18132 118.283 3.18132C119.437 3.18132 119.445 4.30603 119.445 4.30603V5.69772H123.893C124.039 2.98108 123.492 2.3236 123.492 2.3236C122.389 -0.132955 118.215 0.00130356 118.215 0.00130356C111.8 0.00130356 112.512 4.88066 112.512 4.88066V13.7302C112.65 18.3065 118.971 17.8416 119.078 17.8378C121.889 17.5294 122.738 16.6433 122.738 16.6433C123.519 16.0679 123.721 15.2708 123.721 15.2708C123.944 14.8066 124 13.3275 124 13.3275V8.12819H118.288ZM103.543 10.8479H103.35L98.8362 0.626563H93.4355V17.4227H97.831L97.5679 7.20295H97.7644L102.441 17.4227H107.677V0.625029H103.226L103.543 10.8479ZM82.7062 13.2377C82.7062 13.2377 82.7697 14.6163 81.4805 14.6163C81.4805 14.6163 80.1247 14.6885 80.1247 13.2722L80.1107 0.636537H75.2897V13.1717C75.2897 13.1717 74.7952 17.916 81.5486 17.916C81.5486 17.916 87.4174 17.9851 87.4174 13.3896V0.637303H82.7062V13.2377ZM9.96578 8.35835C9.96578 8.35835 8.7609 7.61877 8.01415 7.33338C8.01415 7.33338 5.70655 6.27311 5.24843 5.76753C5.24843 5.76753 4.34845 4.92515 4.87621 3.95081C4.87621 3.95081 5.09598 3.31174 6.04626 3.31174C6.04626 3.31174 7.28519 3.37849 7.28519 4.38735V5.81049H11.7239L11.7154 3.71375C11.7154 3.71375 12.0544 0.281328 6.4889 0.130958C6.4889 0.130958 6.06948 0.104104 5.45427 0.134792C5.45427 0.134792 2.08264 0.314316 0.876995 2.14791C0.870031 2.16172 0.859971 2.1717 0.853006 2.18397C0.853006 2.18397 0.360842 2.70489 0.360842 4.52238V5.83504C0.360842 5.83504 0.309768 7.34949 1.09058 8.32536C1.09058 8.32536 1.53167 8.9652 2.61814 9.67101C2.61814 9.67101 4.82359 10.8487 6.14764 11.523C6.14764 11.523 7.48561 12.2779 7.3084 13.4832C7.3084 13.4832 7.19929 14.7192 5.90929 14.6685C5.90929 14.6685 4.72918 14.6164 4.72918 13.4042V11.981H0.000230575V14.0486C0.000230575 14.0486 -0.132096 17.9997 5.94334 17.9997C5.94334 17.9997 11.7472 18.1163 12.0203 13.9451V12.2641C12.0203 12.2626 12.2231 9.70477 9.96578 8.35835Z" fill="black"/>
</svg>
