<svg width="24" height="24" viewBox="0 0 24 24" fill="none" xmlns="http://www.w3.org/2000/svg">
<mask id="mask0_15_70" style="mask-type:alpha" maskUnits="userSpaceOnUse" x="0" y="0" width="24" height="24">
<rect width="24" height="24" fill="#D9D9D9"/>
</mask>
<g mask="url(#mask0_15_70)">
<path d="M12 11.2C11.25 11.2 10.6127 10.9373 10.088 10.412C9.56272 9.88732 9.30005 9.24999 9.30005 8.49999C9.30005 7.74999 9.56272 7.11265 10.088 6.58799C10.6127 6.06265 11.25 5.79999 12 5.79999C12.75 5.79999 13.3877 6.06265 13.913 6.58799C14.4377 7.11265 14.7 7.74999 14.7 8.49999C14.7 9.24999 14.4377 9.88732 13.913 10.412C13.3877 10.9373 12.75 11.2 12 11.2ZM5.30005 18.2V16.9C5.30005 16.5333 5.41272 16.1877 5.63805 15.863C5.86272 15.5377 6.16672 15.2833 6.55005 15.1C7.46672 14.6667 8.37938 14.3417 9.28805 14.125C10.196 13.9083 11.1 13.8 12 13.8C12.9 13.8 13.8044 13.9083 14.713 14.125C15.621 14.3417 16.5334 14.6667 17.45 15.1C17.8334 15.2833 18.1377 15.5377 18.363 15.863C18.5877 16.1877 18.7 16.5333 18.7 16.9V18.2H5.30005ZM6.00005 17.5H18V16.9C18 16.6667 17.921 16.446 17.763 16.238C17.6044 16.0293 17.3834 15.85 17.1 15.7C16.3 15.3167 15.471 15.0207 14.613 14.812C13.7544 14.604 12.8834 14.5 12 14.5C11.1167 14.5 10.2457 14.604 9.38705 14.812C8.52905 15.0207 7.70005 15.3167 6.90005 15.7C6.61672 15.85 6.39605 16.0293 6.23805 16.238C6.07938 16.446 6.00005 16.6667 6.00005 16.9V17.5ZM12 10.5C12.55 10.5 13.021 10.304 13.413 9.91199C13.8044 9.52065 14 9.04999 14 8.49999C14 7.94999 13.8044 7.47932 13.413 7.08799C13.021 6.69599 12.55 6.49999 12 6.49999C11.45 6.49999 10.9794 6.69599 10.588 7.08799C10.196 7.47932 10 7.94999 10 8.49999C10 9.04999 10.196 9.52065 10.588 9.91199C10.9794 10.304 11.45 10.5 12 10.5Z" fill="white"/>
</g>
</svg>
